<svg version="1.1" id="Layer_1" xmlns="http://www.w3.org/2000/svg" xmlns:xlink="http://www.w3.org/1999/xlink" x="0px" y="0px"
	 width="100%" viewBox="0 0 1024 1024" enable-background="new 0 0 1024 1024" xml:space="preserve">
<path fill="#000000" opacity="1.000000" stroke="none" 
	d="
M567.177185,762.364136 
	C536.777222,768.922058 506.656677,769.369324 476.524750,763.834473 
	C427.159119,754.766541 384.300201,732.706299 348.419617,697.670044 
	C311.155518,661.282776 287.437012,617.154297 276.794312,566.270447 
	C256.140930,467.524689 298.979492,363.133545 378.856293,305.583923 
	C411.013672,282.415222 446.604065,267.186066 485.899078,261.644104 
	C576.165955,248.913361 651.415588,277.548676 712.222290,345.043549 
	C716.089661,349.336365 720.117249,353.534424 722.978516,358.636017 
	C716.294373,363.017059 709.695007,362.150085 704.851440,356.443695 
	C670.260193,315.690216 627.547668,287.929871 575.092285,276.207947 
	C523.126831,264.595459 472.647675,269.914215 424.678375,292.868073 
	C350.957703,328.144348 307.458527,387.573669 289.393158,466.458618 
	C284.913513,486.019592 283.813843,505.949921 284.352081,525.977844 
	C284.419220,528.475708 284.699707,530.928528 286.074829,533.462097 
	C292.917999,531.535706 299.671753,529.292969 306.582001,527.751953 
	C329.277161,522.690735 351.927277,524.310608 374.413300,529.151550 
	C411.401917,537.114624 445.515289,552.245422 478.204803,570.993225 
	C497.706146,582.177429 516.914856,593.917664 537.072388,603.910339 
	C551.206177,610.916809 566.054993,615.674744 582.077393,615.651611 
	C586.270142,615.645508 590.379089,614.873230 594.317444,613.506104 
	C602.767334,610.572815 604.269409,604.190247 597.799438,597.921875 
	C591.098389,591.429626 582.867920,587.335327 574.089478,584.462097 
	C554.171265,577.942505 534.163147,571.697021 514.258850,565.135925 
	C507.108093,562.778809 500.520966,559.137329 494.556671,554.488953 
	C481.546356,544.349182 480.354553,528.668274 491.545715,516.559387 
	C501.396271,505.901062 514.205200,500.315582 527.512512,495.780396 
	C570.518860,481.123566 611.959900,485.538086 652.157349,506.088684 
	C669.207947,514.805603 685.450256,525.073486 703.142212,532.550659 
	C719.225159,539.347839 735.668640,543.334473 754.633606,538.504211 
	C749.653015,592.552856 731.513000,640.298584 697.610840,681.718445 
	C663.530823,723.355530 620.065186,750.179260 567.177185,762.364136 
M292.042389,544.514282 
	C288.670197,546.091980 286.102264,547.260010 286.983032,552.494873 
	C291.299011,578.147095 299.268738,602.466736 310.957520,625.698853 
	C352.866119,708.994690 446.533997,766.388855 544.617676,753.828979 
	C582.274292,749.007019 616.483093,735.703186 646.962341,713.237366 
	C691.752502,680.223022 719.786682,635.753540 734.529297,582.545410 
	C737.129028,573.162659 739.334961,563.627075 740.242126,553.439392 
	C737.501160,553.052368 735.070862,552.508606 732.620789,552.396973 
	C719.983215,551.821411 707.817993,548.986938 696.547729,543.412292 
	C679.684692,535.071167 662.989807,526.359680 646.496826,517.307617 
	C609.389954,496.941742 570.922729,493.214447 530.927734,507.234528 
	C520.334534,510.947937 510.337158,515.970398 502.555389,524.405090 
	C496.770477,530.675354 496.976379,537.755432 503.124603,542.770935 
	C508.953369,547.525757 515.291382,551.394104 522.540283,553.832031 
	C543.512512,560.885254 565.076172,566.138672 585.613464,574.503235 
	C594.795349,578.242920 603.329712,583.068237 610.107666,590.473816 
	C620.805908,602.162598 617.491150,617.076355 602.908875,623.370483 
	C590.451782,628.747375 577.596680,628.460266 564.686707,625.797913 
	C542.022705,621.123962 521.786377,610.573853 502.036530,599.069946 
	C478.863190,585.571899 455.876495,571.747498 431.335297,560.792725 
	C403.066254,548.173889 374.076599,538.125427 342.731079,537.050537 
	C325.669495,536.465454 308.761017,537.352539 292.042389,544.514282 
z"/>
<path fill="#000000" opacity="1.000000" stroke="none" 
	d="
M458.139038,394.484619 
	C465.503754,372.256714 482.996918,358.428955 505.399780,356.855530 
	C526.253967,355.390869 546.498657,367.568390 555.827271,387.188507 
	C570.465637,417.976105 550.473450,455.600555 516.958374,460.338043 
	C479.073700,465.693146 449.985199,434.556305 457.628662,396.831879 
	C457.760864,396.179565 457.873779,395.523346 458.139038,394.484619 
M537.624878,438.128937 
	C547.936584,427.154205 551.881104,414.343079 548.599121,399.529877 
	C543.756897,377.674774 520.801086,363.564850 498.813568,368.860046 
	C476.492065,374.235657 462.656830,396.660828 468.159607,418.546204 
	C475.985474,449.670898 512.397095,460.270905 537.624878,438.128937 
z"/>
</svg>