<svg version="1.1" id="Layer_1" xmlns="http://www.w3.org/2000/svg" xmlns:xlink="http://www.w3.org/1999/xlink" x="0px" y="0px"
	 width="100%" viewBox="0 0 992 992" enable-background="new 0 0 992 992" xml:space="preserve">
<path fill="#000000" opacity="1.000000" stroke="none" 
	d="
M454.614105,119.489456 
	C563.170654,96.434563 659.569885,146.265213 710.723938,216.612991 
	C705.776855,221.080826 697.047424,220.524933 692.718933,215.349930 
	C673.617188,192.512787 651.415955,173.335602 625.610840,158.408432 
	C584.645081,134.711426 540.410522,124.459381 493.296906,127.192154 
	C441.481720,130.197632 395.174500,148.160583 354.977753,180.974686 
	C303.889862,222.679626 275.043335,277.179047 264.373474,341.767120 
	C261.617798,358.448212 261.821289,375.286316 262.284882,392.117401 
	C262.311554,393.085297 262.586792,394.046356 262.706696,394.771027 
	C264.041656,395.943054 265.152771,395.350952 266.215698,394.941345 
	C293.081116,384.588318 320.695160,384.542267 348.424927,389.831970 
	C388.475281,397.471954 425.242157,413.722870 460.412170,433.945068 
	C479.039978,444.655701 497.694092,455.333527 516.575745,465.585205 
	C530.748779,473.280365 545.886108,478.297882 562.167175,479.265045 
	C567.367126,479.573914 572.467407,479.022980 577.472839,477.691467 
	C581.445984,476.634521 585.418457,474.966888 586.446106,470.638092 
	C587.499146,466.202484 584.287903,463.123535 581.262146,460.479065 
	C573.988892,454.122467 565.401245,450.152100 556.271057,447.238861 
	C537.708557,441.315979 519.123840,435.460541 500.609009,429.391998 
	C492.993225,426.895874 485.771484,423.434937 479.124359,418.884705 
	C462.301575,407.368683 461.340973,388.446472 476.687531,375.024658 
	C488.277252,364.888580 502.134796,359.292328 516.498840,354.840424 
	C557.967041,341.988098 597.729126,347.259369 636.205872,366.391754 
	C653.810364,375.145508 670.439697,385.760895 688.498840,393.617462 
	C701.258911,399.168640 714.314819,403.485596 728.541565,402.839294 
	C731.894165,402.687012 735.211914,402.471741 738.403320,401.501038 
	C742.630676,400.215302 743.457153,402.245911 743.002747,405.815033 
	C740.410645,426.176483 736.505859,446.235474 729.821228,465.709656 
	C715.938293,506.154785 694.151550,541.608704 662.811890,570.827820 
	C625.804993,605.330627 582.360962,627.163330 531.947449,633.155884 
	C450.787231,642.803284 381.270447,617.054260 323.794403,559.901794 
	C282.313324,518.654236 257.550201,467.989899 250.948807,409.847870 
	C241.150452,323.548340 268.044098,249.180054 328.968597,187.426010 
	C363.715027,152.206467 406.013733,130.297272 454.614105,119.489456 
M695.065857,510.576965 
	C712.283264,481.284393 723.578796,449.952606 728.253113,416.600067 
	C726.147644,414.936005 724.400635,415.381989 722.790405,415.324463 
	C708.083679,414.799042 694.076233,411.305664 680.987244,404.703369 
	C664.929871,396.603729 648.946838,388.328552 633.213257,379.620544 
	C596.808105,359.471619 558.844788,354.523956 518.978577,367.233154 
	C507.018524,371.046021 495.532196,375.955322 486.439667,385.092194 
	C478.843231,392.725739 479.353729,400.013794 487.770966,406.628174 
	C495.387390,412.613281 504.177460,415.939362 513.318054,418.771912 
	C530.972473,424.242676 548.862183,429.031494 566.097412,435.762817 
	C578.110901,440.454773 589.641113,446.119080 597.687927,456.837860 
	C604.471375,465.873810 602.523438,478.042084 593.313354,484.588959 
	C590.299377,486.731415 586.967407,488.228882 583.467834,489.383392 
	C571.351807,493.380554 559.135376,492.630768 546.960571,489.893066 
	C525.580017,485.085266 506.241394,475.342407 487.447754,464.493134 
	C460.042694,448.672699 433.007843,432.193512 403.703949,419.935181 
	C377.428101,408.943573 350.504242,400.462646 321.809723,399.290558 
	C304.072418,398.566071 286.527863,399.861816 269.817841,406.808350 
	C265.535431,408.588562 263.187103,410.750702 264.905426,415.822205 
	C265.906342,418.776398 265.851410,422.070160 266.535553,425.152557 
	C284.417053,505.717163 329.567719,565.298401 404.358032,600.822327 
	C460.321930,627.404114 518.211914,630.149170 576.751648,609.126404 
	C627.841064,590.779175 666.586670,557.343140 695.065857,510.576965 
z"/>
<path fill="#000000" opacity="1.000000" stroke="none" 
	d="
M422.316284,745.569397 
	C405.788239,716.354370 419.226837,681.799194 450.069794,673.374939 
	C476.346069,666.198120 503.923218,685.504150 507.479370,712.537659 
	C511.014740,739.413208 493.280029,762.198425 470.362793,766.743958 
	C451.972168,770.391602 433.656555,762.534851 422.316284,745.569397 
M453.336548,688.725891 
	C451.931580,689.245850 450.500244,689.704407 449.125702,690.295044 
	C434.221466,696.699768 426.566772,714.891418 432.170441,730.545166 
	C437.850159,746.411377 453.999542,755.062012 469.715332,750.656616 
	C486.236633,746.025391 495.821869,728.830505 491.537720,711.128357 
	C487.809113,695.721741 470.244202,683.843018 453.336548,688.725891 
z"/>
<path fill="#000000" opacity="1.000000" stroke="none" 
	d="
M529.818604,231.196198 
	C553.572083,256.694672 547.924500,297.655853 517.480530,314.697296 
	C484.239380,333.304535 442.812439,313.099487 437.927795,275.034271 
	C434.920654,251.600189 447.025970,230.094406 466.899841,220.400543 
	C488.408997,209.909058 511.443237,213.783829 529.818604,231.196198 
M464.628296,300.889954 
	C472.585815,307.333832 481.898621,310.630707 491.919373,310.321960 
	C516.743896,309.557190 534.897522,289.208435 532.777771,264.509918 
	C531.346558,247.833557 522.476685,235.708282 506.963104,229.424927 
	C491.133484,223.013565 476.224335,225.634583 463.075195,236.694580 
	C444.389282,252.411636 443.878296,284.219238 464.628296,300.889954 
z"/>
<path fill="#000000" opacity="1.000000" stroke="none" 
	d="
M616.000610,766.246216 
	C611.003784,766.243958 606.496094,766.047180 602.013123,766.296326 
	C597.917480,766.523865 596.516479,765.027100 596.546631,760.862366 
	C596.711853,738.045776 596.631958,715.227417 596.635742,692.409668 
	C596.636719,686.428345 596.635864,680.447083 596.635864,674.349670 
	C600.454224,673.036682 604.150452,673.271790 607.712952,673.213623 
	C620.034607,673.012207 632.362549,673.215454 644.685669,673.065613 
	C648.896606,673.014404 650.560669,674.418396 650.415710,678.863464 
	C650.055054,689.923462 651.729248,689.024414 640.195679,689.044067 
	C632.201172,689.057678 624.204529,689.164856 616.213074,689.011292 
	C612.595276,688.941772 611.061462,690.183655 611.289368,693.941040 
	C611.540955,698.089661 611.510254,702.273315 611.301147,706.426575 
	C611.120789,710.008362 612.726074,711.066467 616.055847,711.012695 
	C624.048279,710.883545 632.045959,711.070251 640.038025,710.929749 
	C643.819519,710.863220 645.432251,712.195557 645.332886,716.167908 
	C645.055664,727.248474 646.646179,727.119385 635.027466,726.531067 
	C628.561768,726.203613 622.052063,726.835815 615.561279,726.873352 
	C612.282715,726.892334 611.209961,728.414612 611.302368,731.517944 
	C611.446167,736.343628 611.495422,741.183899 611.281738,746.004517 
	C611.127625,749.479980 612.430298,750.725342 615.896790,750.672119 
	C625.554565,750.523743 635.219543,750.777161 644.874573,750.557617 
	C648.881470,750.466492 650.522034,751.590332 650.405396,755.864929 
	C650.078979,767.830688 651.604187,766.128540 639.984497,766.240662 
	C632.157166,766.316223 624.328491,766.249268 616.000610,766.246216 
z"/>
<path fill="#000000" opacity="1.000000" stroke="none" 
	d="
M358.963806,697.968262 
	C340.818939,719.846924 354.662476,746.227112 375.127716,751.048401 
	C384.251648,753.197693 392.228119,750.523071 399.455322,745.017883 
	C404.775421,740.965210 404.746826,740.927673 408.503357,746.192810 
	C413.923859,753.790222 413.923859,753.790222 406.475555,759.322754 
	C386.380188,774.249390 356.671234,767.983459 342.866119,745.906921 
	C324.130096,715.945129 341.055206,677.867615 375.878571,672.280212 
	C389.207275,670.141663 400.738586,674.974365 410.724243,683.805786 
	C412.785797,685.629028 412.884766,687.363831 411.167694,689.370239 
	C410.951721,689.622620 410.767395,689.902527 410.574219,690.173889 
	C405.070526,697.904663 405.070679,697.904663 397.280548,692.659302 
	C384.975983,684.373901 371.475922,686.164429 358.963806,697.968262 
z"/>
<path fill="#000000" opacity="1.000000" stroke="none" 
	d="
M558.405884,742.306335 
	C554.522583,751.088806 550.779846,759.518188 547.037048,767.947632 
	C546.408386,767.991089 545.779663,768.034546 545.150940,768.078064 
	C531.597351,737.018982 518.043701,705.959961 504.321320,674.514160 
	C509.570709,673.133850 514.035767,673.633667 518.442749,673.854004 
	C521.122742,673.987976 521.513062,676.642822 522.333191,678.547302 
	C529.643005,695.521057 536.884094,712.524414 544.165833,729.510254 
	C544.664307,730.672974 544.784363,732.098816 546.511047,733.016541 
	C550.563049,723.656372 554.593567,714.388367 558.588928,705.105103 
	C562.472351,696.081970 566.446960,687.094543 570.115662,677.984314 
	C571.447876,674.675964 573.358276,673.345703 576.879089,673.619995 
	C580.159241,673.875549 583.475037,673.674622 588.358826,673.674622 
	C578.130859,697.099548 568.338684,719.526428 558.405884,742.306335 
z"/>
<path fill="#000000" opacity="1.000000" stroke="none" 
	d="
M603.996216,788.072021 
	C511.729889,788.240234 419.962616,788.410217 328.195312,788.527588 
	C327.712006,788.528198 327.227692,787.787048 326.742462,787.391174 
	C327.761536,784.720642 329.911011,785.691772 331.517426,785.665588 
	C406.966797,784.434875 482.423462,784.903076 557.877563,784.734436 
	C577.201843,784.691223 596.543030,785.123230 615.845398,784.448364 
	C634.003723,783.813538 652.146729,784.278564 670.293945,784.012390 
	C672.070618,783.986267 674.367920,783.199951 675.912903,787.242615 
	C651.660339,787.676941 628.047729,786.894531 603.996216,788.072021 
z"/>
<path fill="#000000" opacity="1.000000" stroke="none" 
	d="
M578.813965,846.784668 
	C570.956116,853.923767 562.362671,855.540771 553.239929,850.809387 
	C544.973267,846.521912 540.838623,838.982239 541.176880,829.893066 
	C541.552856,819.791992 546.526611,812.092346 556.538086,808.686707 
	C564.447144,805.996277 571.841980,807.635071 577.872498,813.269592 
	C584.432800,819.399048 586.618347,827.215393 584.639099,836.050171 
	C583.746765,840.033142 581.697754,843.443115 578.813965,846.784668 
M547.794617,835.413452 
	C552.012329,845.645996 560.697632,849.773987 569.627808,845.790466 
	C578.024353,842.044983 581.712830,832.176208 577.956726,823.505798 
	C574.310547,815.089111 564.899902,811.297485 556.839294,814.997498 
	C549.688721,818.279785 546.656372,824.683594 547.794617,835.413452 
z"/>
<path fill="#000000" opacity="1.000000" stroke="none" 
	d="
M489.764313,849.805786 
	C489.708588,836.029358 489.708588,822.733887 489.708588,808.849670 
	C496.579193,808.723450 503.084290,807.193115 509.600403,809.240906 
	C519.658142,812.401733 525.253174,822.255981 523.629700,833.840576 
	C522.030579,845.251404 514.767883,852.051941 503.760315,852.367188 
	C500.433380,852.462463 497.100891,852.439392 493.772614,852.378723 
	C492.154541,852.349304 490.295776,852.565857 489.764313,849.805786 
M510.149689,816.131226 
	C506.648834,814.185730 502.828064,814.209717 498.980865,814.225830 
	C496.513580,814.236145 495.320007,815.191406 495.337952,817.774780 
	C495.396973,826.259583 495.382355,834.745239 495.341919,843.230286 
	C495.331207,845.474426 496.238922,846.430542 498.547943,846.691467 
	C506.813660,847.625122 513.840149,844.088013 516.680603,837.331543 
	C519.865112,829.756775 517.584290,821.613464 510.149689,816.131226 
z"/>
<path fill="#000000" opacity="1.000000" stroke="none" 
	d="
M482.321289,834.809265 
	C481.793457,845.489685 476.044037,852.592957 467.759094,853.272278 
	C457.737793,854.093994 450.088837,846.726196 449.766418,835.624878 
	C449.544037,827.966980 449.664490,820.298035 449.708405,812.634399 
	C449.720276,810.563171 449.217316,807.932251 452.562439,807.885376 
	C456.119293,807.835449 455.820496,810.653931 455.863525,812.889648 
	C455.985321,819.218567 455.923248,825.550903 455.952271,831.881836 
	C455.959900,833.546692 455.954102,835.218140 456.094055,836.874817 
	C456.585480,842.691467 460.026306,846.642822 465.072906,847.279053 
	C469.840424,847.880127 474.483887,844.476746 475.832214,838.832153 
	C477.673035,831.125549 476.038971,823.222229 476.728760,815.451843 
	C476.962677,812.816589 474.481171,807.964294 479.669037,808.103821 
	C484.211884,808.225952 482.096100,812.784729 482.224792,815.347717 
	C482.541931,821.662781 482.324921,828.004700 482.321289,834.809265 
z"/>
<path fill="#000000" opacity="1.000000" stroke="none" 
	d="
M410.464783,813.783447 
	C411.549683,815.838562 410.776886,816.972900 409.278656,817.780334 
	C407.791290,818.581970 406.794891,817.632629 405.774902,816.726013 
	C402.396515,813.723450 398.749451,812.292847 394.480164,814.950256 
	C390.462036,817.451416 390.171814,821.671326 394.202393,824.143372 
	C397.433594,826.125122 401.144379,827.308350 404.569244,828.994385 
	C411.452423,832.382751 414.092957,836.592834 413.244171,842.551208 
	C412.529755,847.566406 407.749237,852.037231 401.929260,853.132751 
	C395.030457,854.431396 387.257202,851.534485 384.649872,846.798035 
	C383.804199,845.261780 383.688751,844.058594 385.206573,842.905823 
	C386.836548,841.667725 388.106140,841.907959 389.530487,843.363342 
	C392.624664,846.524780 396.296661,847.968750 400.829590,846.956299 
	C404.228546,846.197021 406.897339,844.522217 407.411285,841.034424 
	C407.891022,837.778625 405.362793,835.915527 402.786774,834.588989 
	C399.983521,833.145325 397.026764,832.001160 394.146210,830.705811 
	C389.346375,828.547424 385.525726,825.684692 385.596069,819.675232 
	C385.658356,814.353516 388.325836,810.866760 393.027008,808.907532 
	C398.529053,806.614624 403.767426,807.173462 408.411865,811.127563 
	C409.155151,811.760376 409.658386,812.675049 410.464783,813.783447 
z"/>
<path fill="#000000" opacity="1.000000" stroke="none" 
	d="
M598.576599,815.559753 
	C595.359802,820.304260 595.767090,822.476746 600.408264,824.923523 
	C604.229248,826.937927 608.363525,828.377869 612.109558,830.510437 
	C620.534851,835.307129 620.340515,846.364685 611.890259,851.143677 
	C604.946838,855.070496 594.951843,853.564087 590.385681,847.861328 
	C589.246643,846.438660 587.864868,844.969543 589.878662,843.142395 
	C591.644348,841.540405 593.016174,842.076660 594.567932,843.611633 
	C598.536743,847.537537 603.223877,848.445374 608.303406,846.092651 
	C613.444153,843.711365 613.960571,838.639709 609.210266,835.601440 
	C606.014771,833.557678 602.352905,832.240601 598.892273,830.614441 
	C593.928101,828.281738 589.968506,825.096863 590.374695,818.976868 
	C590.735596,813.540405 594.064636,810.250610 599.024719,808.469666 
	C604.301208,806.575073 610.847168,808.033325 614.191895,811.973022 
	C615.428955,813.430176 617.162476,815.077209 615.174500,817.159485 
	C613.169983,819.259094 611.748840,817.735962 610.180542,816.300232 
	C606.707031,813.120056 602.906677,812.481506 598.576599,815.559753 
z"/>
<path fill="#000000" opacity="1.000000" stroke="none" 
	d="
M445.875000,812.648193 
	C443.724365,814.466797 441.474365,813.979614 439.371826,813.891418 
	C435.570892,813.731873 434.032928,815.179199 434.120392,819.136108 
	C434.329834,828.614258 434.205048,838.100281 434.175995,847.582947 
	C434.168976,849.880249 434.564941,852.583557 430.906036,852.423828 
	C427.687103,852.283264 427.937622,849.819946 427.928192,847.684021 
	C427.887177,838.367737 427.731476,829.046509 427.981659,819.736816 
	C428.097656,815.419983 426.683197,813.488403 422.281921,813.949097 
	C420.975342,814.085815 419.619690,813.933167 418.304810,813.767883 
	C416.518616,813.543335 415.773529,812.397583 415.827911,810.635315 
	C415.875732,809.087097 416.590363,807.919373 418.137146,807.906433 
	C426.782104,807.833801 435.431549,807.743408 444.071381,807.969116 
	C446.577179,808.034546 446.310272,810.387329 445.875000,812.648193 
z"/>
<path fill="#000000" opacity="1.000000" stroke="none" 
	d="
M529.623779,839.976562 
	C529.609558,830.517761 529.559814,821.553650 529.611633,812.590149 
	C529.623474,810.548462 529.120361,807.852722 532.488098,807.924316 
	C535.772766,807.994080 535.295288,810.630676 535.302124,812.699097 
	C535.341125,824.484863 535.336243,836.270996 535.286865,848.056641 
	C535.278992,849.938171 535.803955,852.325500 532.676758,852.414124 
	C529.346130,852.508606 529.627930,850.115723 529.619751,847.941528 
	C529.610413,845.451599 529.622375,842.961548 529.623779,839.976562 
z"/>
</svg>