<svg version="1.1" id="Layer_1" xmlns="http://www.w3.org/2000/svg" xmlns:xlink="http://www.w3.org/1999/xlink" x="0px" y="0px"
	 width="100%" viewBox="0 0 1024 1024" enable-background="new 0 0 1024 1024" xml:space="preserve">
<path fill="#000000" opacity="1.000000" stroke="none" 
	d="
M520.827698,465.455872 
	C514.787537,491.398865 499.510651,508.292358 473.814575,514.159119 
	C441.897461,521.446167 410.213196,500.527130 402.788330,468.210419 
	C394.621857,432.665863 415.848572,398.811218 451.674377,392.361145 
	C483.646912,386.604797 512.799805,407.172180 520.270996,439.299377 
	C522.256287,447.836090 522.450378,456.417969 520.827698,465.455872 
M476.837402,414.609985 
	C472.334595,412.791718 467.681396,411.513733 462.817535,411.377197 
	C438.156647,410.684723 418.380707,433.282532 420.891113,457.943939 
	C422.796875,476.665527 438.637878,494.847443 460.259186,495.607300 
	C479.454590,496.281921 496.865875,482.250519 501.385681,462.807129 
	C505.894714,443.410156 496.102844,423.758972 476.837402,414.609985 
z"/>
<path fill="#000000" opacity="1.000000" stroke="none" 
	d="
M656.993652,424.033630 
	C656.994812,430.323395 656.994812,436.119690 656.994812,442.648071 
	C662.837219,442.648071 668.277893,442.645752 673.718567,442.648621 
	C681.384277,442.652710 689.050903,442.727905 696.715332,442.632812 
	C699.659302,442.596344 701.039246,443.754822 700.987793,446.723236 
	C700.924194,450.388306 700.920288,454.055664 700.967896,457.721039 
	C701.011047,461.048645 699.593323,462.419617 696.129456,462.372833 
	C684.799561,462.219818 673.463989,462.440002 662.135498,462.239838 
	C658.193665,462.170166 656.799927,463.579590 656.913391,467.454163 
	C657.118225,474.447540 657.166870,481.456573 656.934570,488.447571 
	C656.793152,492.699371 658.567017,493.827423 662.559998,493.768616 
	C675.389038,493.579681 688.228760,493.928558 701.051453,493.585358 
	C706.240723,493.446472 707.967468,495.240570 707.400879,500.188629 
	C707.099487,502.820496 707.119812,505.539246 707.398254,508.176178 
	C707.860474,512.553467 706.088013,514.099121 701.757507,514.013916 
	C691.762573,513.817078 681.761108,513.957947 671.762268,513.952942 
	C662.096741,513.948120 652.430237,513.846313 642.766235,513.963623 
	C638.945801,514.009888 637.572021,512.600891 637.584717,508.668335 
	C637.703796,471.839722 637.702820,435.010406 637.586548,398.181793 
	C637.574036,394.225403 638.972107,392.946655 642.804260,392.969727 
	C662.634583,393.089264 682.466187,393.095581 702.296570,392.989044 
	C706.215393,392.967987 707.397583,394.461304 707.425354,398.313812 
	C707.532898,413.210632 707.651001,413.210510 692.997925,413.212189 
	C683.332397,413.213287 673.666870,413.201843 664.001343,413.214966 
	C657.003845,413.224487 657.003174,413.238403 656.987488,420.040588 
	C656.984802,421.207123 656.990601,422.373627 656.993652,424.033630 
z"/>
<path fill="#000000" opacity="1.000000" stroke="none" 
	d="
M317.403809,461.485168 
	C322.343445,479.879669 333.370453,491.622192 352.034210,495.107483 
	C363.953064,497.333282 373.800598,492.292542 382.802277,485.100037 
	C384.081512,484.077881 385.300751,482.980621 386.960297,481.566528 
	C391.204529,485.961700 394.279510,490.854340 397.190094,495.790405 
	C398.693481,498.339966 395.954315,499.583557 394.455078,500.964539 
	C367.705383,525.604431 326.874420,517.480164 307.664581,488.314301 
	C282.737122,450.467560 303.642120,400.245392 348.169739,392.168793 
	C366.280884,388.883698 382.344696,394.895172 395.873169,407.408783 
	C397.119690,408.561768 398.476593,409.764832 397.153961,411.644226 
	C394.016541,416.102173 390.820312,420.518707 387.797485,424.742889 
	C384.994537,424.434296 383.890503,422.572998 382.372467,421.364044 
	C370.782715,412.133820 358.086060,408.152985 343.786865,414.085205 
	C328.806183,420.300110 319.957428,431.597137 317.190918,447.695465 
	C316.412323,452.226105 316.802399,456.618866 317.403809,461.485168 
z"/>
<path fill="#000000" opacity="1.000000" stroke="none" 
	d="
M574.592651,512.453979 
	C573.944702,513.661926 573.521301,514.576599 572.926270,515.360962 
	C572.673706,515.693970 572.061096,515.753845 570.714172,516.306030 
	C553.016235,475.813721 535.339111,435.368988 517.301575,394.099762 
	C524.314087,393.350891 530.386169,393.577087 536.437683,393.847565 
	C538.707092,393.949036 538.962646,396.246704 539.655640,397.863922 
	C549.227722,420.202789 558.765442,442.556458 568.329407,464.898834 
	C569.170776,466.864349 569.691284,469.023682 571.624634,470.737457 
	C573.733887,469.175140 574.400635,466.742249 575.344177,464.541718 
	C584.725891,442.661499 594.177612,420.810059 603.333801,398.835571 
	C605.028137,394.769104 607.251953,393.157104 611.549377,393.595825 
	C616.127991,394.063232 620.801147,393.154053 626.321167,394.351166 
	C609.017761,433.859772 591.882751,472.983826 574.592651,512.453979 
z"/>
<path fill="#000000" opacity="1.000000" stroke="none" 
	d="
M485.000061,538.694214 
	C570.239502,538.044250 654.979065,537.476501 739.473938,537.792786 
	C740.339050,540.131104 739.671082,541.070129 738.012085,541.252502 
	C735.532898,541.524902 733.028625,541.957825 730.556519,541.846313 
	C707.734436,540.816772 684.927551,542.121887 662.114380,542.168518 
	C598.132141,542.299316 534.143921,541.779053 470.168732,542.484985 
	C410.864044,543.139343 351.561920,542.976196 292.259125,543.236023 
	C290.031708,543.245789 286.821381,544.605164 285.612976,539.927734 
	C352.189514,538.226013 418.349274,538.913025 485.000061,538.694214 
z"/>
<path fill="#000000" opacity="1.000000" stroke="none" 
	d="
M622.252808,592.160767 
	C623.951477,605.442017 619.798645,615.907166 608.893616,623.111877 
	C598.181519,630.189392 584.093933,628.600647 574.887756,619.763489 
	C564.887939,610.164551 562.660095,594.669006 569.546631,582.640930 
	C575.184937,572.792908 583.995850,567.574097 595.013733,568.051819 
	C607.063171,568.574219 615.907288,575.020508 620.507385,586.542542 
	C621.182434,588.233337 621.643799,590.009399 622.252808,592.160767 
M583.903625,578.307068 
	C569.177185,587.811523 569.366821,609.387146 584.247742,617.455994 
	C592.820435,622.104431 603.375671,620.053528 610.005981,612.451355 
	C617.003235,604.428406 617.324158,592.597595 610.777710,583.997314 
	C604.525085,575.783020 594.488037,573.475891 583.903625,578.307068 
z"/>
<path fill="#000000" opacity="1.000000" stroke="none" 
	d="
M539.637512,583.680786 
	C542.989441,590.608765 543.132446,597.672180 541.945496,604.554016 
	C539.645508,617.889893 529.646240,625.997070 516.025635,626.309448 
	C511.534180,626.412476 507.036987,626.276489 502.546234,626.393982 
	C499.735748,626.467468 498.073547,625.540771 498.077484,622.483521 
	C498.098724,606.008118 498.083679,589.532654 498.133453,573.057373 
	C498.138580,571.361267 498.504913,569.409607 500.640839,569.330566 
	C510.880798,568.951660 521.324463,567.279724 530.716675,573.321472 
	C534.592468,575.814697 537.522217,579.145752 539.637512,583.680786 
M534.077881,589.598328 
	C530.157776,579.668396 523.192871,575.931702 509.940826,576.240051 
	C506.520172,576.319763 505.228973,577.401367 505.294861,580.894470 
	C505.467438,590.044189 505.220398,599.201782 505.382477,608.351868 
	C505.582520,619.644226 502.652863,619.153076 516.525818,618.741150 
	C526.309387,618.450623 533.267395,611.746338 534.878357,602.192688 
	C535.562805,598.134033 535.057007,594.265869 534.077881,589.598328 
z"/>
<path fill="#000000" opacity="1.000000" stroke="none" 
	d="
M478.625366,613.417236 
	C480.944794,609.847229 481.007660,606.171631 481.010529,602.494629 
	C481.017944,592.999634 480.980164,583.504517 481.008698,574.009644 
	C481.016815,571.311218 480.837067,568.533020 484.994202,568.656799 
	C489.056763,568.777893 488.297577,571.632629 488.308624,573.979126 
	C488.359558,584.806458 488.615356,595.644958 488.221741,606.458435 
	C487.902191,615.238892 483.823578,622.283203 475.522156,625.826050 
	C468.300598,628.908142 461.098969,628.091431 454.844849,623.015137 
	C449.657623,618.804871 446.887360,613.103821 446.743622,606.487915 
	C446.501282,595.332275 446.673340,584.167725 446.657104,573.006958 
	C446.653778,570.701233 446.752258,568.742004 449.964905,568.660461 
	C453.245178,568.577332 453.942291,570.386902 453.948853,573.026855 
	C453.969574,581.355652 453.965729,589.684509 453.994263,598.013245 
	C454.003387,600.677490 453.975433,603.348755 454.153107,606.004211 
	C454.605896,612.772461 458.110962,617.870850 463.647369,619.318970 
	C469.772034,620.920959 474.805878,619.047852 478.625366,613.417236 
z"/>
<path fill="#000000" opacity="1.000000" stroke="none" 
	d="
M658.493896,610.227295 
	C657.152588,605.375793 653.467896,603.434570 649.645081,601.643982 
	C645.134460,599.530945 640.251099,598.211914 636.116150,595.298401 
	C627.513672,589.237000 627.367615,578.046204 635.807678,571.756714 
	C643.290894,566.180237 655.390686,567.407471 660.715210,574.282776 
	C663.906372,578.403564 663.624756,579.400818 657.541260,582.353210 
	C656.800842,581.305054 656.045471,579.714600 654.838745,578.622986 
	C650.824707,574.991699 646.014099,574.527527 641.477783,577.077759 
	C635.886597,580.220947 635.478210,586.444214 640.922668,589.856384 
	C644.134766,591.869446 647.853027,593.060852 651.284973,594.741638 
	C653.967041,596.055054 656.709900,597.331970 659.162964,599.009460 
	C666.972839,604.349915 667.891968,614.734802 661.306519,621.548889 
	C653.296509,629.837036 637.468323,629.433350 629.871460,620.647827 
	C628.349670,618.888000 625.969604,617.028198 628.856384,614.338745 
	C631.461426,611.911743 633.106812,613.330872 635.046875,615.347168 
	C639.095154,619.554504 644.316101,620.559448 649.790405,619.510315 
	C654.553528,618.597473 657.932739,615.818604 658.493896,610.227295 
z"/>
<path fill="#000000" opacity="1.000000" stroke="none" 
	d="
M390.229675,597.632446 
	C396.073181,601.227600 399.459778,605.930176 398.573181,612.668152 
	C397.590820,620.133667 392.756897,624.329407 385.841034,626.489868 
	C377.516602,629.090332 367.639252,626.522034 362.530884,620.321716 
	C361.045746,618.519104 359.386383,616.718628 361.900513,614.313049 
	C364.434723,611.888428 365.970032,613.050049 368.017273,615.137329 
	C373.347015,620.571228 382.078339,621.440369 387.628754,617.414856 
	C392.592285,613.815002 392.798248,608.779907 388.028656,604.929260 
	C383.678711,601.417480 378.261261,599.958618 373.320129,597.591736 
	C365.197845,593.700867 362.210175,589.580933 362.690521,582.470459 
	C363.091644,576.533081 367.620514,571.173401 373.931213,569.167847 
	C381.229126,566.848511 389.275787,568.897339 393.561676,574.166138 
	C396.794464,578.140320 396.520020,579.240662 391.605652,581.920349 
	C389.830627,581.493774 389.214447,579.721924 387.947876,578.694397 
	C384.352753,575.777771 380.477936,574.397217 375.934418,576.372925 
	C372.886688,577.698120 370.442993,579.470215 370.120300,583.168457 
	C369.790894,586.943848 371.964233,589.153992 374.931732,590.614136 
	C379.853882,593.036072 384.908142,595.189453 390.229675,597.632446 
z"/>
<path fill="#000000" opacity="1.000000" stroke="none" 
	d="
M425.357483,580.369141 
	C425.347748,594.311584 425.348450,607.797302 425.330811,621.282959 
	C425.327545,623.777039 425.718658,626.423706 421.755585,626.356140 
	C417.941528,626.291138 418.054352,623.692383 418.048401,621.189575 
	C418.017609,608.203552 417.906555,595.214661 418.145844,582.232727 
	C418.233154,577.494080 416.630371,575.418640 411.820709,575.913635 
	C409.845886,576.116943 407.829224,575.925598 405.831879,575.895752 
	C403.438629,575.859924 402.110779,574.765137 402.129120,572.239258 
	C402.147064,569.768372 403.277863,568.645935 405.802002,568.658508 
	C416.456940,568.711426 427.112427,568.714172 437.767395,568.669800 
	C440.292542,568.659241 441.325806,569.713196 441.344116,572.253113 
	C441.363037,574.865234 440.079132,575.859009 437.710083,575.896362 
	C434.880920,575.940979 432.050995,575.971924 429.221588,575.961853 
	C426.547485,575.952332 425.167511,577.148560 425.357483,580.369141 
z"/>
<path fill="#000000" opacity="1.000000" stroke="none" 
	d="
M550.024414,586.002197 
	C550.033020,581.171753 550.036316,576.840820 550.049683,572.509888 
	C550.057861,569.879395 551.191406,568.601257 554.017334,568.662109 
	C556.766968,568.721313 557.344055,570.183594 557.340332,572.494873 
	C557.313416,589.154175 557.312256,605.813538 557.329285,622.472839 
	C557.331604,624.745667 556.838196,626.280334 554.056335,626.356567 
	C550.829956,626.445007 550.047546,624.661621 550.045654,621.985474 
	C550.037415,610.157532 550.030701,598.329651 550.024414,586.002197 
z"/>
</svg>